<svg width="32" height="32" viewBox="0 0 32 32" fill="none" xmlns="http://www.w3.org/2000/svg">
<g clip-path="url(#clip0_23625_133624)">
<path d="M21.667 4.8335V26.8335C21.667 29.2952 23.3653 30.6668 25.167 30.6668C26.8337 30.6668 28.667 29.5002 28.667 26.8335V5.00016C28.667 2.7435 27.0003 1.3335 25.167 1.3335C23.3337 1.3335 21.667 2.8885 21.667 4.8335Z" fill="#F9AB00"/>
<path d="M12.5 16V26.8333C12.5 29.295 14.1983 30.6667 16 30.6667C17.6667 30.6667 19.5 29.5 19.5 26.8333V16.1667C19.5 13.91 17.8333 12.5 16 12.5C14.1667 12.5 12.5 14.055 12.5 16Z" fill="#E37400"/>
<path d="M6.8335 30.667C8.76649 30.667 10.3335 29.1 10.3335 27.167C10.3335 25.234 8.76649 23.667 6.8335 23.667C4.9005 23.667 3.3335 25.234 3.3335 27.167C3.3335 29.1 4.9005 30.667 6.8335 30.667Z" fill="#E37400"/>
</g>
<defs>
<clipPath id="clip0_23625_133624">
<rect width="32" height="32" fill="white"/>
</clipPath>
</defs>
</svg>
